# xmcd CD database file
#
# Track frame offsets:
#	182
#	19220
#	33767
#	48122
#	65567
#	80705
#	95077
#	109470
#	120597
#	133305
#	148027
#	168230
#	180292
#	195572
#	213275
#	226622
#	242537
#	253642
#	269682
#	280447
#
# Disc length: 3886 seconds
#
# Revision: 0
# Processed by: cddbd v1.5.1PL0 Copyright (c) Steve Scherf et al.
# Submitted via: CDex 1.51
#
DISCID=200f2c14
DTITLE=Ze Vicente - Presente
DYEAR=1994
DGENRE=Religioso
TTITLE0=A gloria de Deus
TTITLE1=Nossos presentes
TTITLE2=Canto de libertacao
TTITLE3=Brinde ao amor
TTITLE4=Ja riou a barra do dia
TTITLE5=Esperanca jovem
TTITLE6=Um hino ao Divino
TTITLE7=Nova luz
TTITLE8=Meu doce amado
TTITLE9=Madrugada Eh
TTITLE10=Salve a romaria
TTITLE11=Luz na frente paz na guia
TTITLE12=Vence a tristeza
TTITLE13=Gloria dos povos amerindios
TTITLE14=Cantico das criaturas
TTITLE15=Teu nome oh Maria
TTITLE16=Meu coracao se enche de alegria
TTITLE17=Como te cantarei senhor
TTITLE18=Bendito seja seja o senhor
TTITLE19=Eh bonita demais
EXTD=YEAR: 1994
EXTT0=
EXTT1=
EXTT2=
EXTT3=
EXTT4=
EXTT5=
EXTT6=
EXTT7=
EXTT8=
EXTT9=
EXTT10=
EXTT11=
EXTT12=
EXTT13=
EXTT14=
EXTT15=
EXTT16=
EXTT17=
EXTT18=
EXTT19=
PLAYORDER=
